<?xml version="1.0" encoding="utf-8"?>
<!-- Generator: Adobe Illustrator 25.2.3, SVG Export Plug-In . SVG Version: 6.00 Build 0)  -->
<svg version="1.1" id="Layer_1" xmlns="http://www.w3.org/2000/svg" xmlns:xlink="http://www.w3.org/1999/xlink" x="0px" y="0px"
	 viewBox="0 0 621.81 213.54" style="enable-background:new 0 0 621.81 213.54;" xml:space="preserve">
<style type="text/css">
	.st0{fill:#FF8300;}
	.st1{fill:#636569;}
	.st2{fill:none;}
	.st3{fill:#4D4D4D;}
</style>
<g id="Layer_2_1_">
</g>
<g id="Layer_1_1_">
</g>
<g id="Layer_3">
</g>
<path class="st0" d="M212.26,147.02c-0.78-0.34-1.66-0.52-2.63-0.52c-1.07,0-2.09,0.18-3.03,0.52c-0.95,0.35-1.81,0.85-2.55,1.49
	s-1.37,1.43-1.86,2.34c-0.49,0.91-0.82,1.93-0.97,3.03c-0.16,1.09-0.11,2.11,0.13,3.01c0.25,0.92,0.67,1.72,1.25,2.39
	c0.58,0.67,1.33,1.19,2.21,1.54c0.86,0.35,1.85,0.53,2.92,0.53c1.03,0,2.04-0.2,3-0.59c0.98-0.4,1.86-1.05,2.63-1.92
	c0.13-0.15,0.2-0.34,0.18-0.54c-0.02-0.2-0.12-0.38-0.27-0.5l-1.69-1.34c-0.29-0.23-0.72-0.2-0.97,0.08
	c-0.44,0.47-0.88,0.82-1.32,1.02c-0.98,0.47-1.96,0.35-2.67,0.01c-0.41-0.19-0.73-0.45-0.98-0.78c-0.26-0.33-0.44-0.74-0.54-1.21
	c-0.11-0.49-0.12-1.04-0.03-1.64c0.07-0.56,0.23-1.06,0.48-1.54c0.25-0.48,0.57-0.9,0.95-1.26c0.38-0.35,0.82-0.63,1.3-0.83
	c0.78-0.32,1.73-0.45,2.58-0.1c0.3,0.12,0.61,0.39,0.94,0.8c0.23,0.29,0.65,0.35,0.96,0.15l1.95-1.3c0.16-0.11,0.28-0.28,0.31-0.48
	c0.03-0.19-0.01-0.39-0.13-0.55C213.78,147.98,213.06,147.37,212.26,147.02z M233.46,148.52c-0.59-0.67-1.35-1.19-2.24-1.54
	c-0.83-0.33-1.78-0.49-2.82-0.49c-1.1-0.01-2.18,0.16-3.16,0.52c-0.95,0.35-1.81,0.85-2.55,1.49s-1.37,1.43-1.86,2.34
	c-0.49,0.91-0.82,1.93-0.97,3.02c-0.16,1.09-0.11,2.11,0.14,3.01c0.25,0.92,0.67,1.72,1.25,2.39s1.33,1.19,2.21,1.54
	c0.86,0.35,1.85,0.53,2.93,0.53c1.08-0.01,2.1-0.2,3.06-0.56c0.95-0.36,1.82-0.87,2.56-1.51c0.75-0.64,1.37-1.42,1.86-2.31
	c0.48-0.89,0.81-1.89,0.96-2.97c0.16-1.11,0.12-2.14-0.12-3.06C234.47,150.01,234.05,149.2,233.46,148.52z M231.05,153.73
	c-0.09,0.61-0.26,1.17-0.51,1.67s-0.57,0.94-0.95,1.3c-0.38,0.36-0.82,0.64-1.31,0.85c-0.96,0.4-2.2,0.4-3.02,0.02
	c-0.4-0.19-0.73-0.45-0.98-0.78c-0.26-0.33-0.44-0.74-0.54-1.21c-0.11-0.49-0.12-1.04-0.04-1.64c0,0,0,0,0-0.01
	c0.07-0.55,0.23-1.07,0.48-1.54c0.25-0.48,0.57-0.9,0.96-1.26c0.38-0.35,0.82-0.63,1.3-0.83c0.48-0.2,1.01-0.3,1.58-0.3
	c0.55,0,1.04,0.1,1.46,0.29c0.41,0.19,0.73,0.44,0.99,0.76c0.26,0.33,0.44,0.72,0.54,1.16C231.1,152.67,231.12,153.19,231.05,153.73
	z M255,146.82h-2.27c-0.36,0-0.67,0.27-0.72,0.62l-1.02,7.28l-3.84-7.5c-0.12-0.24-0.37-0.39-0.64-0.39h-3.01
	c-0.36,0-0.67,0.27-0.72,0.62L241,160.2c-0.03,0.21,0.03,0.42,0.17,0.57c0.14,0.16,0.34,0.25,0.54,0.25h2.27
	c0.36,0,0.66-0.27,0.71-0.62l1.06-7.56l3.93,7.78c0.12,0.24,0.37,0.4,0.64,0.4h2.89c0.36,0,0.67-0.27,0.72-0.62l1.78-12.76
	c0.03-0.21-0.03-0.42-0.17-0.57C255.41,146.91,255.21,146.82,255,146.82z M273.98,148.6c-0.6-0.61-1.33-1.06-2.18-1.36
	c-0.82-0.28-1.7-0.43-2.62-0.43h-5.03c-0.36,0-0.67,0.27-0.71,0.62l-1.78,12.76c-0.03,0.21,0.03,0.42,0.17,0.57
	c0.14,0.16,0.34,0.25,0.54,0.25h4.76c0.84,0,1.72-0.14,2.62-0.42c0.91-0.28,1.76-0.71,2.54-1.28c0.79-0.57,1.48-1.3,2.05-2.17
	c0.59-0.89,0.97-1.94,1.14-3.14c0.17-1.19,0.11-2.25-0.17-3.14C275.03,149.98,274.58,149.21,273.98,148.6z M271.68,153.82
	c-0.09,0.68-0.29,1.25-0.58,1.7c-0.29,0.46-0.66,0.84-1.09,1.12c-0.45,0.29-0.96,0.52-1.53,0.66c-0.59,0.15-1.22,0.22-1.86,0.22
	h-0.86l1.01-7.21h1.44c0.63,0,1.19,0.07,1.68,0.22c0.45,0.13,0.83,0.33,1.12,0.6c0.28,0.25,0.48,0.58,0.6,1.01
	C271.76,152.59,271.78,153.16,271.68,153.82z M294.37,146.82h-2.27c-0.36,0-0.67,0.27-0.71,0.62l-1.12,7.99
	c-0.04,0.26-0.12,0.53-0.24,0.81c-0.11,0.27-0.27,0.52-0.48,0.74c-0.19,0.21-0.45,0.4-0.75,0.54c-0.3,0.14-0.67,0.21-1.1,0.21
	c-0.42,0-0.75-0.06-0.98-0.19c-0.23-0.13-0.4-0.28-0.52-0.46c-0.13-0.2-0.21-0.42-0.24-0.66c-0.04-0.27-0.04-0.53,0-0.78l1.12-8
	c0.03-0.21-0.03-0.42-0.17-0.57c-0.14-0.16-0.34-0.25-0.54-0.25h-2.27c-0.36,0-0.67,0.27-0.72,0.62l-1.14,8.08
	c-0.12,0.87-0.08,1.67,0.12,2.38c0.2,0.72,0.54,1.35,1.02,1.87c0.47,0.51,1.06,0.91,1.75,1.18c0.67,0.27,1.43,0.4,2.26,0.4
	c0.82,0,1.6-0.13,2.32-0.39c0.73-0.26,1.4-0.64,1.99-1.12c0.59-0.49,1.08-1.09,1.48-1.78c0.39-0.69,0.65-1.48,0.77-2.33l1.13-8.08
	c0.03-0.21-0.03-0.42-0.17-0.57C294.78,146.91,294.58,146.82,294.37,146.82z M312.21,147.02c-0.78-0.34-1.66-0.52-2.63-0.52
	c-1.07,0-2.09,0.18-3.03,0.52c-0.95,0.35-1.81,0.85-2.55,1.49c-0.74,0.65-1.37,1.43-1.86,2.34c-0.49,0.91-0.82,1.92-0.97,3.03
	c-0.16,1.09-0.11,2.11,0.14,3.01c0.25,0.92,0.67,1.72,1.25,2.39c0.58,0.67,1.33,1.19,2.21,1.54c0.86,0.35,1.85,0.53,2.92,0.53
	c1.03,0,2.04-0.2,3-0.59c0.98-0.4,1.86-1.05,2.63-1.92c0.13-0.15,0.19-0.34,0.18-0.54c-0.02-0.2-0.12-0.38-0.27-0.5l-1.69-1.33
	c-0.29-0.23-0.72-0.2-0.98,0.07c-0.44,0.47-0.88,0.82-1.32,1.02c-0.98,0.47-1.97,0.35-2.68,0.01c-0.41-0.19-0.73-0.45-0.98-0.78
	c-0.26-0.34-0.44-0.74-0.54-1.21c-0.11-0.49-0.12-1.04-0.04-1.64c0.07-0.55,0.24-1.07,0.48-1.54c0.25-0.48,0.57-0.9,0.95-1.26
	c0.38-0.35,0.82-0.63,1.3-0.83c0.78-0.32,1.73-0.45,2.58-0.1c0.3,0.12,0.61,0.39,0.94,0.8c0.23,0.29,0.65,0.35,0.96,0.15l1.95-1.3
	c0.16-0.11,0.28-0.28,0.31-0.48c0.03-0.19-0.01-0.39-0.13-0.55C313.73,147.98,313.01,147.37,312.21,147.02z M330.93,146.82h-10.09
	c-0.36,0-0.66,0.27-0.71,0.62l-0.29,2.05c-0.03,0.21,0.03,0.42,0.17,0.57c0.14,0.16,0.34,0.25,0.54,0.25h3.08l-1.38,9.88
	c-0.03,0.21,0.03,0.42,0.17,0.57c0.14,0.16,0.34,0.25,0.55,0.25h2.27c0.36,0,0.67-0.27,0.71-0.62l1.41-10.09h3.28
	c0.36,0,0.67-0.26,0.71-0.62l0.29-2.06c0.03-0.21-0.03-0.42-0.17-0.57C331.34,146.91,331.14,146.82,330.93,146.82z M350.07,148.52
	c-0.59-0.67-1.34-1.19-2.24-1.54c-0.84-0.33-1.79-0.49-2.82-0.49c-1.1,0-2.18,0.16-3.16,0.52c-0.95,0.35-1.81,0.85-2.55,1.49
	s-1.36,1.43-1.86,2.34c-0.49,0.9-0.82,1.92-0.97,3.03c-0.16,1.09-0.11,2.1,0.13,3.01c0.25,0.92,0.67,1.73,1.25,2.38
	c0.58,0.67,1.33,1.19,2.21,1.54c0.86,0.35,1.85,0.53,2.93,0.53c1.07-0.01,2.1-0.2,3.06-0.56c0.95-0.36,1.81-0.87,2.56-1.51
	c0.74-0.64,1.37-1.41,1.86-2.31c0.48-0.89,0.81-1.89,0.96-2.97c0.16-1.11,0.11-2.14-0.13-3.06
	C351.08,150.01,350.66,149.2,350.07,148.52z M347.66,153.73c-0.09,0.61-0.26,1.17-0.51,1.67s-0.57,0.94-0.95,1.29
	c-0.38,0.36-0.82,0.64-1.31,0.85c-0.97,0.4-2.2,0.41-3.02,0.02c-0.41-0.19-0.73-0.45-0.98-0.78c-0.26-0.33-0.44-0.74-0.54-1.21
	c-0.11-0.49-0.12-1.04-0.04-1.64c0.07-0.56,0.23-1.07,0.48-1.55c0.25-0.48,0.57-0.9,0.95-1.26c0.38-0.35,0.82-0.63,1.3-0.83
	c0.48-0.2,1.01-0.3,1.58-0.3c0.55,0,1.04,0.1,1.46,0.29c0.41,0.19,0.73,0.44,0.99,0.76c0.26,0.33,0.44,0.72,0.54,1.16
	C347.72,152.67,347.73,153.19,347.66,153.73z M368.17,147.7c-0.48-0.33-1.05-0.56-1.71-0.7c-0.6-0.12-1.24-0.19-1.9-0.19h-4.43
	c-0.36,0-0.67,0.27-0.71,0.62l-1.78,12.76c-0.03,0.21,0.03,0.42,0.17,0.57c0.14,0.16,0.34,0.25,0.54,0.25h2.27
	c0.36,0,0.67-0.27,0.72-0.62l0.67-4.78h0.54l2.02,4.96c0.11,0.27,0.38,0.45,0.67,0.45h2.74c0.25,0,0.48-0.13,0.61-0.33
	c0.13-0.21,0.15-0.47,0.05-0.69l-2.24-4.84c0.21-0.07,0.41-0.15,0.6-0.24c0.47-0.23,0.89-0.52,1.24-0.88
	c0.35-0.36,0.64-0.77,0.86-1.24c0.22-0.46,0.36-0.96,0.43-1.48c0.13-0.85,0.06-1.58-0.19-2.17
	C369.08,148.54,368.68,148.06,368.17,147.7z M365.71,151.08c-0.04,0.28-0.12,0.49-0.22,0.61c-0.13,0.15-0.28,0.26-0.46,0.33
	c-0.22,0.09-0.46,0.14-0.71,0.17c-0.31,0.03-0.61,0.04-0.92,0.04h-0.93l0.27-2.02h1.34c0.25,0,0.52,0.02,0.8,0.05
	c0.22,0.03,0.41,0.08,0.57,0.16c0.1,0.05,0.17,0.12,0.23,0.21C365.7,150.67,365.75,150.8,365.71,151.08z M386.23,146.82h-8.45
	c-0.36,0-0.67,0.27-0.71,0.62l-1.78,12.76c-0.03,0.21,0.03,0.42,0.17,0.57c0.14,0.16,0.34,0.25,0.54,0.25h8.78
	c0.36,0,0.66-0.27,0.71-0.62l0.29-2.05c0.03-0.21-0.03-0.42-0.17-0.58c-0.14-0.16-0.34-0.25-0.54-0.25h-5.68l0.28-2.02h5.23
	c0.36,0,0.66-0.26,0.71-0.62l0.29-2.06c0.03-0.21-0.03-0.42-0.17-0.57c-0.14-0.16-0.34-0.25-0.54-0.25h-5.03l0.23-1.69h5.55
	c0.36,0,0.67-0.26,0.72-0.62l0.29-2.06c0.03-0.21-0.03-0.42-0.17-0.57S386.44,146.82,386.23,146.82z M401.56,146.84
	c-1.26-0.42-2.72-0.45-4.1-0.08c-0.66,0.17-1.27,0.45-1.82,0.81c-0.56,0.37-1.04,0.83-1.43,1.39c-0.4,0.57-0.66,1.25-0.77,2.03
	c-0.13,0.91-0.04,1.67,0.27,2.25c0.29,0.55,0.7,1.01,1.21,1.35c0.46,0.31,0.98,0.55,1.54,0.73c0.48,0.15,0.93,0.31,1.33,0.48
	c0.34,0.14,0.61,0.31,0.81,0.49c0.03,0.03,0.13,0.12,0.09,0.44c-0.03,0.18-0.09,0.32-0.19,0.45c-0.11,0.15-0.25,0.27-0.4,0.37
	c-0.18,0.11-0.37,0.19-0.56,0.24c-0.62,0.16-1.17,0.09-1.64-0.17c-0.3-0.17-0.52-0.4-0.68-0.7c-0.1-0.19-0.29-0.33-0.5-0.37
	c-0.22-0.04-0.43,0.02-0.6,0.16l-1.95,1.66c-0.29,0.24-0.34,0.66-0.12,0.97c0.53,0.74,1.22,1.27,2.04,1.59
	c0.77,0.29,1.61,0.44,2.49,0.44c0.69,0,1.37-0.09,2.02-0.28c0.67-0.19,1.28-0.48,1.81-0.86c0.55-0.39,1.02-0.89,1.39-1.47
	c0.38-0.6,0.63-1.3,0.74-2.08c0.13-0.92,0.04-1.66-0.26-2.25c-0.29-0.56-0.7-1.02-1.22-1.37c-0.47-0.31-0.99-0.56-1.56-0.74
	c-0.48-0.15-0.93-0.3-1.34-0.47c-0.35-0.14-0.63-0.3-0.83-0.47c-0.03-0.03-0.1-0.09-0.06-0.36c0.02-0.17,0.07-0.3,0.15-0.41
	c0.1-0.13,0.21-0.24,0.34-0.32c0.15-0.09,0.31-0.16,0.49-0.2c0.57-0.13,1.12-0.08,1.56,0.11c0.24,0.1,0.41,0.25,0.53,0.47
	c0.11,0.19,0.3,0.32,0.52,0.35c0.22,0.03,0.44-0.04,0.6-0.18l1.89-1.75c0.29-0.27,0.31-0.72,0.05-1.01
	C402.9,147.49,402.28,147.08,401.56,146.84z M433.82,146.82h-8.45c-0.36,0-0.67,0.27-0.71,0.62l-1.78,12.76
	c-0.03,0.21,0.03,0.42,0.17,0.57c0.14,0.16,0.33,0.25,0.54,0.25h8.78c0.36,0,0.67-0.27,0.72-0.62l0.29-2.05
	c0.03-0.21-0.03-0.42-0.17-0.57c-0.14-0.16-0.34-0.25-0.54-0.25H427l0.28-2.02h5.23c0.36,0,0.66-0.26,0.72-0.62l0.29-2.05
	c0.03-0.21-0.03-0.42-0.17-0.57c-0.14-0.16-0.34-0.25-0.55-0.25h-5.03l0.23-1.69h5.56c0.36,0,0.67-0.27,0.72-0.62l0.29-2.06
	c0.03-0.21-0.03-0.42-0.17-0.57C434.22,146.91,434.02,146.82,433.82,146.82z M448.89,157.53h-4.6l1.38-9.88
	c0.03-0.21-0.03-0.42-0.17-0.57c-0.14-0.16-0.34-0.25-0.54-0.25h-2.27c-0.36,0-0.67,0.27-0.71,0.62l-1.78,12.76
	c-0.03,0.21,0.03,0.42,0.17,0.57c0.14,0.16,0.34,0.25,0.55,0.25h7.7c0.36,0,0.67-0.27,0.71-0.62l0.29-2.05
	c0.03-0.21-0.03-0.42-0.17-0.58C449.3,157.62,449.1,157.53,448.89,157.53z M467.38,141.42h-2.45c-0.22,0-0.42,0.1-0.56,0.26
	l-2.14,2.59c-0.18,0.22-0.22,0.51-0.1,0.77c0.12,0.25,0.38,0.41,0.66,0.41h1.69c0.18,0,0.35-0.06,0.48-0.18l2.9-2.59
	c0.22-0.2,0.3-0.52,0.19-0.8C467.94,141.6,467.67,141.42,467.38,141.42z M466.8,146.82h-8.46c-0.36,0-0.67,0.27-0.72,0.62
	l-1.78,12.76c-0.03,0.21,0.03,0.42,0.17,0.57c0.14,0.16,0.34,0.25,0.54,0.25h8.78c0.36,0,0.67-0.27,0.72-0.62l0.29-2.05
	c0.03-0.21-0.03-0.42-0.17-0.58c-0.14-0.16-0.34-0.25-0.55-0.25h-5.68l0.28-2.02h5.23c0.36,0,0.67-0.26,0.72-0.62l0.29-2.06
	c0.03-0.21-0.03-0.42-0.17-0.57c-0.14-0.16-0.34-0.25-0.54-0.25h-5.03l0.23-1.69h5.56c0.36,0,0.67-0.26,0.71-0.62l0.29-2.06
	c0.03-0.21-0.03-0.42-0.17-0.57C467.21,146.91,467.01,146.82,466.8,146.82z M484.41,147.02c-0.78-0.34-1.66-0.52-2.63-0.52
	c-1.07,0-2.09,0.18-3.03,0.52c-0.95,0.35-1.81,0.85-2.55,1.49c-0.74,0.65-1.37,1.43-1.86,2.34c-0.49,0.9-0.82,1.92-0.97,3.02
	c-0.16,1.09-0.11,2.1,0.13,3.02c0.25,0.92,0.68,1.73,1.25,2.38c0.58,0.66,1.32,1.18,2.21,1.54c0.86,0.35,1.85,0.53,2.92,0.53
	c1.03,0,2.04-0.2,3-0.59c0.98-0.4,1.86-1.05,2.63-1.92c0.13-0.15,0.19-0.34,0.18-0.54c-0.02-0.2-0.12-0.38-0.27-0.5l-1.7-1.34
	c-0.29-0.23-0.72-0.2-0.97,0.08c-0.44,0.47-0.88,0.82-1.32,1.02c-0.97,0.46-1.97,0.34-2.67,0.01c-0.4-0.19-0.73-0.45-0.98-0.78
	c-0.26-0.33-0.44-0.74-0.54-1.21c-0.11-0.49-0.12-1.04-0.03-1.64c0.07-0.56,0.23-1.07,0.48-1.55s0.57-0.9,0.95-1.26
	c0.38-0.35,0.82-0.63,1.3-0.83c0.78-0.32,1.74-0.44,2.58-0.1c0.3,0.12,0.61,0.39,0.94,0.8c0.23,0.29,0.65,0.35,0.96,0.15l1.95-1.3
	c0.16-0.11,0.28-0.28,0.31-0.48c0.03-0.19-0.01-0.39-0.13-0.55C485.93,147.97,485.21,147.37,484.41,147.02z M503.13,146.82h-10.1
	c-0.36,0-0.67,0.27-0.72,0.62l-0.29,2.05c-0.03,0.21,0.03,0.42,0.17,0.57c0.14,0.16,0.34,0.25,0.54,0.25h3.08l-1.38,9.88
	c-0.03,0.21,0.03,0.42,0.17,0.57c0.14,0.16,0.34,0.25,0.54,0.25h2.27c0.36,0,0.67-0.27,0.71-0.62l1.41-10.09h3.28
	c0.36,0,0.67-0.26,0.72-0.62l0.29-2.05c0.03-0.21-0.03-0.42-0.17-0.58C503.54,146.91,503.34,146.82,503.13,146.82z M519.04,147.7
	c-0.48-0.33-1.05-0.56-1.71-0.7c-0.6-0.12-1.24-0.19-1.9-0.19H511c-0.36,0-0.67,0.27-0.72,0.62l-1.78,12.76
	c-0.03,0.21,0.03,0.42,0.17,0.57c0.14,0.16,0.34,0.25,0.54,0.25h2.27c0.36,0,0.67-0.27,0.72-0.62l0.67-4.78h0.54l2.02,4.96
	c0.11,0.27,0.38,0.45,0.67,0.45h2.74c0.25,0,0.48-0.13,0.61-0.33c0.13-0.21,0.15-0.47,0.05-0.69l-2.24-4.84
	c0.21-0.07,0.41-0.15,0.61-0.24c0.47-0.23,0.89-0.53,1.23-0.88c0.35-0.36,0.64-0.78,0.86-1.24s0.37-0.96,0.44-1.49
	c0.13-0.85,0.06-1.58-0.19-2.17C519.95,148.54,519.56,148.06,519.04,147.7z M516.59,151.09c-0.04,0.28-0.12,0.49-0.22,0.61
	c-0.13,0.15-0.28,0.26-0.46,0.33c-0.22,0.09-0.46,0.14-0.71,0.17c-0.31,0.03-0.61,0.04-0.92,0.04h-0.93l0.26-2.03h1.34
	c0.25,0,0.52,0.02,0.8,0.05c0.22,0.03,0.41,0.08,0.57,0.16c0.1,0.05,0.17,0.12,0.23,0.22C516.6,150.73,516.61,150.89,516.59,151.09z
	 M530.87,146.82h-2.27c-0.36,0-0.67,0.27-0.72,0.62l-1.78,12.76c-0.03,0.21,0.03,0.42,0.17,0.57c0.14,0.16,0.34,0.25,0.54,0.25h2.27
	c0.36,0,0.66-0.27,0.71-0.62l1.78-12.76c0.03-0.21-0.03-0.42-0.17-0.57C531.27,146.91,531.08,146.82,530.87,146.82z M548.71,147.02
	c-0.78-0.34-1.66-0.52-2.63-0.52c-1.07,0-2.09,0.18-3.03,0.52c-0.95,0.34-1.8,0.85-2.55,1.49c-0.74,0.65-1.37,1.44-1.85,2.34
	c-0.49,0.9-0.82,1.92-0.97,3.02c-0.16,1.09-0.11,2.1,0.14,3.02s0.67,1.73,1.25,2.38c0.58,0.66,1.32,1.18,2.21,1.55
	c0.86,0.35,1.85,0.53,2.92,0.53c1.03,0,2.04-0.2,3-0.59c0.98-0.4,1.86-1.05,2.63-1.92c0.13-0.15,0.19-0.34,0.18-0.54
	c-0.02-0.2-0.12-0.38-0.27-0.5l-1.7-1.34c-0.3-0.23-0.72-0.2-0.98,0.08c-0.44,0.47-0.88,0.81-1.31,1.02
	c-0.98,0.47-1.97,0.35-2.68,0.01c-0.41-0.19-0.73-0.45-0.98-0.78c-0.26-0.33-0.44-0.74-0.54-1.21c-0.11-0.49-0.12-1.04-0.04-1.64
	c0.07-0.55,0.24-1.07,0.48-1.54c0.25-0.48,0.57-0.9,0.95-1.26c0.39-0.36,0.81-0.63,1.31-0.83c0.78-0.32,1.74-0.44,2.58-0.1
	c0.29,0.12,0.61,0.39,0.94,0.79c0.23,0.29,0.65,0.35,0.96,0.15l1.95-1.3c0.16-0.11,0.28-0.28,0.31-0.48
	c0.03-0.19-0.01-0.39-0.13-0.55C550.23,147.98,549.51,147.37,548.71,147.02z M569.92,148.52c-0.59-0.67-1.35-1.19-2.24-1.54
	c-0.84-0.33-1.78-0.49-2.81-0.49c-1.1,0-2.18,0.16-3.16,0.52c-0.95,0.35-1.8,0.85-2.55,1.49c-0.74,0.64-1.37,1.43-1.86,2.34
	c-0.49,0.91-0.82,1.93-0.97,3.03c-0.16,1.09-0.11,2.11,0.13,3.01c0.25,0.92,0.67,1.73,1.25,2.38c0.58,0.66,1.32,1.19,2.21,1.55
	c0.86,0.35,1.85,0.53,2.93,0.53c1.08-0.01,2.11-0.2,3.06-0.56c0.95-0.36,1.82-0.87,2.56-1.51c0.75-0.64,1.37-1.42,1.86-2.31
	c0.48-0.89,0.81-1.89,0.97-2.97c0.16-1.11,0.11-2.14-0.13-3.06C570.93,150.01,570.5,149.2,569.92,148.52z M567.5,153.73
	c-0.09,0.61-0.26,1.17-0.51,1.67s-0.57,0.94-0.95,1.29c-0.38,0.36-0.81,0.64-1.31,0.85c-0.49,0.2-1.01,0.31-1.58,0.31
	c-0.55,0-1.03-0.1-1.44-0.29s-0.73-0.45-0.98-0.78c-0.26-0.33-0.44-0.74-0.54-1.21c-0.11-0.49-0.12-1.04-0.04-1.64
	c0.07-0.55,0.24-1.07,0.48-1.54c0.25-0.48,0.57-0.9,0.95-1.26c0.38-0.35,0.82-0.63,1.3-0.83s1.01-0.3,1.58-0.3
	c0.55,0,1.04,0.1,1.46,0.29c0.4,0.19,0.73,0.44,0.98,0.76c0.26,0.33,0.44,0.72,0.54,1.16C567.56,152.68,567.58,153.19,567.5,153.73z
	 M582.29,150.6c0.1-0.13,0.21-0.24,0.34-0.32c0.15-0.09,0.31-0.16,0.49-0.2c0.58-0.13,1.12-0.08,1.56,0.11
	c0.23,0.1,0.41,0.25,0.53,0.47c0.11,0.19,0.3,0.32,0.52,0.35c0.22,0.03,0.44-0.04,0.6-0.18l1.89-1.75c0.29-0.27,0.31-0.72,0.05-1.01
	c-0.51-0.58-1.14-0.99-1.86-1.23c-1.27-0.42-2.72-0.45-4.1-0.08c-0.66,0.18-1.27,0.45-1.82,0.8c-0.56,0.37-1.04,0.83-1.43,1.39
	c-0.4,0.57-0.66,1.25-0.77,2.03c-0.13,0.91-0.04,1.67,0.27,2.25c0.29,0.55,0.7,1.01,1.21,1.35c0.47,0.31,0.98,0.55,1.54,0.72
	c0.48,0.15,0.93,0.31,1.33,0.48c0.34,0.14,0.62,0.31,0.81,0.49c0.03,0.03,0.13,0.12,0.09,0.44c-0.03,0.17-0.09,0.32-0.19,0.45
	c-0.11,0.15-0.25,0.27-0.4,0.37c-0.18,0.11-0.37,0.19-0.56,0.24c-0.63,0.16-1.17,0.09-1.64-0.17c-0.29-0.17-0.52-0.4-0.69-0.7
	c-0.1-0.19-0.29-0.32-0.5-0.36c-0.22-0.04-0.43,0.02-0.6,0.16l-1.95,1.66c-0.29,0.24-0.34,0.66-0.12,0.97
	c0.53,0.74,1.22,1.27,2.05,1.59c0.77,0.29,1.61,0.44,2.49,0.44c0.69,0,1.37-0.09,2.02-0.28c0.67-0.19,1.28-0.48,1.82-0.86
	c0.54-0.39,1.01-0.88,1.39-1.47c0.38-0.6,0.62-1.29,0.74-2.08c0.13-0.92,0.04-1.66-0.26-2.25c-0.29-0.56-0.7-1.02-1.21-1.37
	c-0.47-0.31-1-0.56-1.56-0.74c-0.47-0.15-0.92-0.3-1.34-0.47c-0.35-0.14-0.63-0.3-0.83-0.47c-0.03-0.03-0.1-0.09-0.06-0.35
	C582.16,150.85,582.21,150.71,582.29,150.6z"/>
<path class="st1" d="M480.11,100.13h-0.38c-2.29,0.01-6.9,1.33-7.96,6.3c-0.37,1.71-0.59,3.59-0.6,3.67l-0.21,1.72h30.1l2.2-11.67
	C499.48,100.12,483.9,100.13,480.11,100.13z M345.47,127.92l-9.43-22.26c-2.79-6.56-5.94-13.99-8.9-21.14
	c-1.21-2.91-3.3-3.77-4.44-4.02c-1.97-0.44-4.2,0.21-5.81,1.69c-0.65,0.59-1.28,1.29-1.89,2.07c-9.88,12.76-19.75,25.52-29.61,38.28
	l-1.61,2.08c-0.61,0.8-1.23,1.6-1.86,2.43l-0.8,1.05c-0.3-3.01-0.62-6.02-0.93-9.03l-1.77-17.01c-0.29-2.75-0.57-5.5-0.86-8.25
	l-0.21-2.04c-0.23-2.21-0.46-4.49-0.79-6.75c-0.42-2.92-2.86-4.75-6.11-4.63c-2.82,0.09-5.03,1.4-6.75,4
	c-4.01,6.06-8.02,12.11-12.04,18.16l-6.72,10.12l-7.77-27.65c-0.86-3.07-3.42-4.79-6.78-4.62c-4.68,0.24-6.38,3.73-6.94,4.88
	c-4.78,9.83-9.58,19.66-14.37,29.48l-6.3,12.92c-0.14,0.29-0.27,0.58-0.41,0.91l-1.56,3.55l5.81-0.01c1.83-0.01,3.61-0.01,5.41,0.03
	c1.75,0.01,3.06-0.75,3.77-2.23c2.6-5.4,5.22-10.8,7.84-16.19l4.76-9.77l1.13,4.03c1.87,6.71,3.75,13.42,5.64,20.12
	c0.62,2.18,2.19,3.82,4.31,4.48c0.64,0.2,1.31,0.3,1.98,0.3c0,0,0.01,0,0.02,0c1.5,0,2.98-0.49,4.27-1.41
	c1.23-0.88,2.38-2.12,3.43-3.68c4.64-6.93,9.24-13.88,13.84-20.84l1.91-2.88l2.89,28.04h23.43c1.3-0.15,2.36-0.78,3.22-1.91
	c7.46-9.8,14.94-19.59,22.42-29.37l1.74-2.27l4.45,10.7h-4.36c-0.19,0.01-4.6,0.3-8.05,4.87c-1.68,2.23-2.79,3.68-2.79,3.68
	l-1.87,2.53h21.7l4.2,9.96c0.5,0.89,1.48,1.76,2.69,1.78c2.38,0.04,4.76,0.04,7.22,0.04h5.28l-1.33-3.43
	C345.66,128.41,345.57,128.16,345.47,127.92z M402.27,108.5c1.25-2.72,2.18-6.7,2.47-10.09c0.43-5.01-0.74-9.45-3.28-12.5
	c-2.39-2.88-5.93-4.49-10.23-4.65c-7.47-0.28-15.06-0.23-22.42-0.18h-0.19c-3.35,0.02-6.7,0.04-10.05,0.03
	c-1.59,0-2.7,0.97-2.96,2.6c-0.91,5.59-1.83,11.19-2.75,16.77l-5.25,31.7h11.91l6.36-38.37c1.8,0,3.58-0.01,5.37-0.01h0.71
	c5.66-0.01,11.51-0.02,17.23,0.05c1.86,0.02,3.2,1,3.5,2.56c0.18,0.93,0.2,2.05,0.06,3.23c-0.64,5.37-3.42,9.61-8.2,9.61
	c-3.78-0.03-7.56-0.02-11.35-0.02h-0.38c-2.29,0.01-6.9,1.33-7.96,6.3c-0.37,1.71-0.59,2.96-0.6,3.04l-0.2,1.85h16.6l8.24,10.69
	c0.7,0.74,1.57,1.03,2.68,1.03h14.35l-11.95-14.42C397.63,115.63,400.41,112.54,402.27,108.5z M421.51,119.5l6.76-38.45h-4.84
	c-1.88,0-3.73,0-5.57,0.04c-1.42,0.03-2.53,1.34-2.75,2.54c-0.65,3.61-1.28,7.22-1.9,10.83l-0.83,4.75
	c-0.79,4.52-1.59,9.04-2.38,13.56l-3.41,19.36h36.65c2.5,0,7.52-1.66,8.68-7.92c0.19-1.02,0.5-2.86,0.5-2.86l0.31-1.85H421.51z
	 M452.44,132.12h46.11l2.22-12.63H467.3l4.54-25.79H497c5.95,0,8.79-4.54,9.45-6.95l1.01-5.65h-46.05L452.44,132.12z M577.21,81.09
	v0.02l-0.39,0.54c-0.24,0.34-13.66,22.75-20.29,32.03l-1.26-3.88c-2.42-7.47-4.85-14.94-7.25-22.41c-0.47-1.45-2.43-6.17-8.18-6.22
	l-0.15-0.06h-7.9l1,3.27c0.08,0.31,0.16,0.58,0.25,0.84l1.31,3.79c1.92,5.54,3.83,11.09,5.78,16.63c0.01,0.04,0.02,0.07,0.03,0.09
	c-0.01,0.01-0.02,0.02-0.03,0.03c-1.16,1.51-2.28,3.06-3.38,4.59l-2.53,3.49c-0.86-2.48-1.73-4.95-2.59-7.43l-6.59-18.88
	c-0.56-2.23-3.05-6.33-8.64-6.38c-0.67-0.01-0.92,0-1.24,0h-6.36l0.95,3.19c0.08,0.26,0.14,0.47,0.21,0.69l11.87,32.86
	c1.18,3.27,2.36,6.55,3.55,9.82c1.08,3,3.12,4.4,6.18,4.3c2.47-0.08,4.55-1.3,6.19-3.62l6.84-9.71l0.21,0.61
	c0.99,2.85,1.98,4.96,2.99,7.8c1.08,3.07,3.27,4.9,5.84,4.9c4.75,0,6.68-2.8,7.71-4.31l0.23-0.33c0.66-0.92,1.98-2.89,3.72-5.5
	l16.6-24.44c4.91-7.48,8.78-13.39,8.91-13.57l1.85-2.75H577.21z"/>
<path class="st2" d="M91.86,134.58c0.03,0.17,0.13,0.62,0.34,1.16L91.86,134.58z"/>
<path class="st3" d="M91.84,134.5L91.84,134.5l0.01,0.08C91.85,134.53,91.84,134.5,91.84,134.5z"/>
<g>
	<path class="st0" d="M208.16,41.84c-1.24-0.82-2.91-0.48-3.72,0.76l-57.08,86.7l-5.88-53.38c-0.15-0.64-0.74-2.59-2.55-2.89
		c0,0-2.29-0.75-4.22,2.09h-0.01l-37.97,56.93L85.34,93.31c-0.42-1.42-1.92-2.24-3.34-1.82s-2.24,1.91-1.82,3.34l11.66,39.67h0.01
		c0,0,0.01,0.03,0.01,0.08l0.34,1.16c0.42,1.08,1.29,2.51,3.02,2.8c0,0,2.68,0.87,5.09-2.17L136.7,81.8l6.12,55.5
		c0.12,1.13,0.94,2.05,2.04,2.32c0.21,0.05,0.42,0.08,0.63,0.08c0.89,0,1.74-0.44,2.24-1.21l61.19-92.92
		C209.74,44.32,209.4,42.65,208.16,41.84z"/>
</g>
<path class="st1" d="M77.27,65.38c5.23-0.26,9.19,2.4,10.53,7.16l12.07,42.88l10.43-15.7c6.24-9.38,12.48-18.76,18.7-28.16
	c2.67-4.04,6.1-6.06,10.49-6.2h0.09c-10.41-9.71-24.37-15.66-39.73-15.66c-32.2,0-58.29,26.09-58.29,58.28
	c0,4.47,0.52,8.82,1.48,13.01l1.14-2.33c7.45-15.23,14.89-30.47,22.32-45.71C67.37,71.17,70,65.75,77.27,65.38z M150.51,86.16
	c0.45,4.25,0.9,8.52,1.34,12.78l1.09,10.5l4.87-7.38c-0.9-8.87-3.78-17.16-8.2-24.4c0.2,1.8,0.39,3.58,0.57,5.34L150.51,86.16z
	 M99.83,166.27c16.54,0,31.46-6.9,42.07-17.97c-3.65-1.09-6.39-4.16-7.05-7.9l-0.04-0.02l-3.95-38.27l-2.96,4.46
	c-6.77,10.22-13.55,20.43-20.37,30.62c-0.38,0.56-0.75,1.13-1.13,1.7c-1.34,1.99-2.79,3.64-4.32,4.92c-0.33,0.28-0.66,0.54-1,0.79
	c-2,1.43-4.3,2.19-6.63,2.19h-0.03c-1.04,0-2.07-0.16-3.07-0.47c-3.29-1.03-5.73-3.56-6.69-6.95c-2.94-10.39-5.85-20.8-8.76-31.2
	l-1.75-6.25l-7.39,15.16c-4.07,8.36-8.14,16.73-12.17,25.11c-0.25,0.52-0.55,0.97-0.9,1.38C64.35,157.37,81.05,166.27,99.83,166.27z
	 M176.51,106.15l-13.55,20.22c-8.01,27.08-33.06,46.84-62.74,46.84c-36.13,0-65.42-29.29-65.42-65.42s29.29-65.42,65.42-65.42
	c31.01,0,56.97,21.57,63.72,50.53l7.74-11.93c-10.86-28.91-38.75-49.49-71.46-49.49c-42.15,0-76.31,34.17-76.31,76.31
	c0,42.14,34.17,76.31,76.31,76.31c42.15,0,76.31-34.17,76.31-76.31C176.53,107.24,176.52,106.69,176.51,106.15z"/>
</svg>
